<svg xmlns="http://www.w3.org/2000/svg" width="34" height="34" viewBox="0 0 34 34">
  <path fill="currentColor" id="dribbble" d="M19.5,2.5a17.038,17.038,0,0,0-17,17.044c.93,22.612,33.073,22.605,34,0A17.038,17.038,0,0,0,19.5,2.5Zm11.243,7.863a14.489,14.489,0,0,1,3.272,9.075,33.742,33.742,0,0,0-10.109-.47C23.517,18,23.1,17.036,22.635,16.1A19.377,19.377,0,0,0,30.743,10.363ZM19.5,5a14.4,14.4,0,0,1,9.626,3.674c-.257.371-2.44,3.318-7.608,5.257A78.327,78.327,0,0,0,16.1,5.409,15.181,15.181,0,0,1,19.5,5ZM13.327,6.386a92.192,92.192,0,0,1,5.387,8.423A54.375,54.375,0,0,1,5.288,16.582,14.621,14.621,0,0,1,13.327,6.386ZM4.978,19.574c0-.151,0-.3.008-.447a53.793,53.793,0,0,0,14.922-2.075c.416.811.816,1.644,1.179,2.469-.2.053-.385.113-.574.174C13.024,22.12,9.042,28.732,8.71,29.3A14.5,14.5,0,0,1,4.978,19.574ZM19.508,34.126a14.446,14.446,0,0,1-8.916-3.075c.257-.53,3.2-6.227,11.394-9.09a.6.6,0,0,0,.091-.03,60.736,60.736,0,0,1,3.1,11.037A14.272,14.272,0,0,1,19.508,34.126Zm8.115-2.492A64.715,64.715,0,0,0,24.8,21.256a21.289,21.289,0,0,1,9.044.621A14.623,14.623,0,0,1,27.622,31.634Z" transform="translate(-2.5 -2.5)"/>
</svg>
