<svg xmlns="http://www.w3.org/2000/svg" width="32" height="32" viewBox="0 0 32 32">
  <path fill="currentColor" id="github" data-name="Path 21" d="M18,2.247A16.124,16.124,0,0,0,2.207,16.024,16.446,16.446,0,0,0,12.94,34.215c.8.144,1.1-.349,1.1-.779,0-.39-.02-1.681-.02-3.055-4.02.759-5.06-1-5.379-1.928A5.961,5.961,0,0,0,7,26.136c-.56-.308-1.36-1.066-.02-1.087a3.2,3.2,0,0,1,2.46,1.681A3.436,3.436,0,0,0,11.5,28.4a3.345,3.345,0,0,0,2.6-.315,3.487,3.487,0,0,1,1.02-2.194c-3.56-.41-7.279-1.825-7.279-8.1a6.477,6.477,0,0,1,1.64-4.409,6.034,6.034,0,0,1,.16-4.347s1.34-.431,4.4,1.681a14.722,14.722,0,0,1,8,0c3.06-2.133,4.4-1.681,4.4-1.681a6.033,6.033,0,0,1,.16,4.347,6.439,6.439,0,0,1,1.64,4.409c0,6.3-3.74,7.69-7.3,8.1a3.942,3.942,0,0,1,1.08,3.035c0,2.194-.02,3.958-.02,4.511,0,.431.3.943,1.1.779a16.456,16.456,0,0,0,10.689-18.2A16.132,16.132,0,0,0,18,2.247Z" transform="translate(-1.999 -2.247)"/>
</svg>
